<svg xmlns="http://www.w3.org/2000/svg" width="580" height="564" viewBox="0 0 580 564">
  <defs>
    <style>
      .cls-1, .cls-12 {
        fill: #fff;
      }

      .cls-2 {
        fill: rgba(255,128,128,0);
      }

      .cls-10, .cls-11, .cls-12, .cls-2, .cls-3, .cls-4, .cls-5, .cls-6, .cls-7, .cls-8, .cls-9 {
        stroke: #b3b3b3;
        stroke-linejoin: round;
      }

      .cls-10, .cls-11, .cls-12, .cls-13, .cls-2, .cls-3, .cls-4, .cls-5, .cls-6, .cls-7, .cls-8, .cls-9 {
        fill-rule: evenodd;
      }

      .cls-3 {
        fill: rgba(239,247,248,0);
      }

      .cls-4 {
        fill: rgba(244,255,244,0);
      }

      .cls-5 {
        fill: rgba(255,170,170,0);
      }

      .cls-6 {
        fill: rgba(179,128,255,0);
      }

      .cls-7 {
        fill: rgba(141,211,95,0);
      }

      .cls-8 {
        fill: rgba(188,6,6,0.81);
      }

      .cls-9 {
        fill: rgba(255,153,85,0);
      }

      .cls-10 {
        fill: rgba(95,188,211,0);
      }

      .cls-11 {
        fill: rgba(255,212,42,0);
      }

      .cls-13 {
        fill: none;
        stroke: #000;
      }
    </style>
  </defs>
  <g id="Group_8" data-name="Group 8" transform="translate(-77 -60)">
    <rect id="rect4163" class="cls-1" width="580" height="564" transform="translate(77 60)"/>
    <path id="path4139" class="cls-2" d="M472.635,279.165l-11.765,2.167-64.087,23.607L370.865,265.86l-7.005-6.9L348.7,247.142l-.739-1.642-2.435-11.22,4.679-9.167,8.62-11.11-6.65-15.324,3.065-2.217,26.079-.027,32.126-1.067,3.612,13.272-4.6,7.5,5.418,12.807,10.508,5.473,6.321,17.9-1.259,5.747L439.305,260l4.98-1.97,4.324,1.833,2.49,7.2,6.431-5.665,3.229,2.244,2.873-12.342-7.033-2.709-.027-11.575,78.921-34.507,5.829,1.888-.137,11.11-2.709,8.155,3.722,5.227-5.679,6.786-33.946,31.251Z" transform="translate(36.102 36.875)"/>
    <path id="path4138" class="cls-3" d="M418.091,392.216l7.508,13.39L429,406.922l-8.669,3.019-2.709,2.477,2.709,5.341v5.573l-5.728-8.9-13.468-16.641-4.257-17.415-.155-5.418,1.78-12.616,5.108-11.92,3.947-22.291,4.876-.232,4.257.7-1.7-2.941-5.882-1.238-6.2-14.271,64.047-23.59,11.725-2.154,29.957-12.243,33.982-31.285,6.431-1.288.077,10.913,1.78,2.786-10.139,3.173,11.455,9.675,5.031,4.567.542,1.625,13.468,6.037-.929,7.043,13.932,6.734,5.186,7.43,4.8,9.52-6.5,7.353L596.5,326.5l10.062,2.012,6.966,7.121-4.257,3.483-6.424,14.087-13.235-1.858-7.276-5.96-.7-2.012-14.009,3.87-1.006,8.978,3.793,3.947-2.864,5.341H560.2l4.876,5.186-.232,5.341L566,380.452l-15.635-2.4-10.991,3.638-15.79-7.895-.077-1.78.542-.542-7.508-8.746-6.269,6.347-1.006,4.025v1.548l-1.084-.077.077,1.7,3.019,3.251-.155,4.721h-1.935l-.929-1.161h-.542l-2.632,6.192,5.263,9.6-.078,1.471-.851,1.006.077,1.238-15.093,9.752-1.084-1.161.077-1.393-13.235-7.276-3.483,1.161-2.4-1.238v-3.87l.851-2.012-1.161-3.483-5.573,2.09-19.273,2.167.232-7.585-9.985-.387-5.805,2.709Z" transform="translate(30.041 31.642)"/>
    <path id="path4141" class="cls-4" d="M458.017,243.766l-6.426,5.669-2.495-7.189-4.326-1.843-4.973,1.978-5.875-1.949,1.267-5.742-6.323-17.9-10.514-5.482-5.41-12.807,4.6-7.491-3.608-13.267-32.264,1.068-25.947.022-2.99,2.174-2.871-6.7-.232-22.988,3.754-10.875,1.316-2.593,1.6-1.953,1.97,2.353,11.466.821,3.612,7.826h6.13l-1.724-12.26-10.809-13.217,5.391-6.321,86.555,9.03,1.888-6.157,4.98-8.7,1.095-7.279,4.762-3.5,8.511-1.724,17.9-10.7,1.56,10.809,13.9-2-2.736-28.87,9.906-12.424-2.983-7.142,10.016.027,20.825,10.563H562.14l3.5,11.466,9.468-.876,2.736-3.667,9.934,13.3,19.265,7.033-3.612,1.97.055,7.772,2.654.958,5.2,29.828-3.749,2.736-8.866,1.532-10.4,5.446-11.22,1.259-18.553,11.3,2.6,2.435-2.791,4.652L553,147.83l-5.2.082-.766,1.067.027,2.326,6.048,1.067,1.943,9.715-13.135,6.075,2.545,3.667-4.57-.109L532.859,177l1.888,6.65L536,184.875l-78.945,34.514.03,11.576,7.031,2.709-2.867,12.348Z" transform="translate(35.616 54.503)"/>
    <path id="path4143" class="cls-5" d="M412.827,584.585l-47.834,3.393,3.612-36.012-8.1-14.339-18.28-.109-2.846-3.5,2.955-10.508-10.07-9.851,3.831-7.006v-13.9l-16.419-1.314,7.443-12.369-3.831-5.473,3.174-20.25-16.638-4.05-7.115-7.224-8.757,5.145-8.319-8.319,4.707-3.284,2.955-3.941-8.428-5.364-.876,3.284-10.727,2.518-.109-5.692,4.816-4.488h-3.393L272.39,407.37l3.174-2.3.547-5.911h-3.5L269,392.374l-9.523-2.846-5.035,10.618-11.493-3.5-3.065-4.6,2.08-11.384-5.692-5.364,11.038-13.989,3.278-6.127,4.131-1.17,2.98,3.061.962-1.289.9-3.4,4.34-1.816.123-3.43,11.424-.052,2.429-5.963-5.434-.09,3.953-3.724,7.464,3.731,5.337-5.876,4.063-10.269,2.4-2.128,11.261-.271-7.025-10.8,2.88-6.766,5.193-.134,7.046,7.065-5.038-16.051-12.4-13.618,5.439-4.015,13.046,3.872.647,21.933,8.13,16.56-2.52,6.232L355.6,335.1l9.6-12.461,9.451-3.533.3,37.476-5.145,33.276,19.374,26.6,22,40.281,11.384,22.111,2.627,17.733-.943,14.215L394.3,508.55v6.424l4.45,6.385,1.78,11.068,7.082,1.742.967,9.714,4.257,8.166Z" transform="translate(49.034 27.073)"/>
    <path id="path4145" class="cls-6" d="M280.32,337.29l-7.471-3.722-3.941,3.722,5.418.109-2.408,5.938-11.439.055-.109,3.421-4.351,1.833-.9,3.393-.958,1.286-2.983-3.065-4.132,1.177-3.284,6.13L230.933,342.5l-2.554-.077-2.632-5.341-5.031-5.263,8.05-8.978,7.74-10.372-7.895,1.084L206.4,271.133l2.554-5.805,13.235-12.616,1.373-6.19,42.668,14.085,3.019,7.043,8.824-2.632,16.08,13.545,12.287,13.506,5.031,16.041-7.043-7.063-5.186.135-2.883,6.772,7.024,10.8-11.262.271-2.4,2.128-4.064,10.275Z" transform="translate(52.57 30.82)"/>
    <path id="path4147" class="cls-7" d="M375.908,319.959l-9.6,12.461-33.282-8.32,2.516-6.231-8.127-16.564-.658-21.9,5.844-5.612.155-5.5,5.379-7.546v-4.1l6.85-1.084,16.641,12.926,9.327,12.268,8.4,22.91,5.882,12.81Z" transform="translate(38.323 29.75)"/>
    <path id="path4149" class="cls-8" d="M216.853,295.091l-7.734,10.362-8.1,9.034-19.025-9.841-22.658-24.3-7.772-17.021-.93-14.394-6.294-3.12-.657-2.955-2.627,3.065L121.9,249.533l-14.449-.109L82,241.323l.055,7.443-7.389,14.285,1.368,1.861-5.692,5.911-6.732-6.513-6.13-.766-2.189,6.13-8.647,6.349-6.294-11.6,5.582-6.294-.219-4.16,2.08-1.2h1.423l-.821-7.936L43.032,235.9l18.553-25.34-.93-4.159-6.349-4.652,2.189-4.98-1.259-3.284,2.791-8.757,6.13,2.244,7.115-8.921-1.7-2.025,4.543-6.02-.164-8.1-8.1-9.359,13.956-14.887,5.8-.164,8.812-8.155-.876-1.751-.164-3.065,3.448-3.722,7.881-.055L107.34,106.8l-1.642-7.06,52.65,49.531,1.2,22.822,27.31,18.553-.93,39.679L203.9,229.18l-1.368,6.163L189.3,247.953l-2.559,5.81,22.217,42.409Z" transform="translate(72.224 48.195)"/>
    <path id="path4151" class="cls-9" d="M312.429,273.147l-13.062-3.875-5.449,4.026L277.96,259.866l-8.823,2.623-3.023-7.041-31.5-10.408-11.107-3.651-18.035,1.144.927-39.606,13.314,12.685,14.878,1.909,7.22-12.368,15.083-1.044,4.595,7.122,6.326-2.367,1.232,3.325-1.864,2.677,3.234,1.9,5.793-3.778,1.772,2.921,7.752,1.01.027,7.633,6.045.114,1.895,8.931,12.26.759,1.935,11.434,7.011-2.684,7.121,1.788,4.409,5.106-2.652.425,0,4.1-5.382,7.553-.157,5.491Z" transform="translate(52.679 35.981)"/>
    <path id="path4153" class="cls-10" d="M230.891,209.924,216,208.008l-13.447-12.854L175.394,176.7l-1.2-22.795L206,142.065l48.785-3.355-2.8,8.582,1.009,29.14,19.415,17.679,8.031,1.642,12.034,14.657,4.608-7.2,20.838.534,7.1-1.663L328.7,203l4.266-.25,1.259,4.652L321.2,225.96l4.556,15.885-3.01.561-4.419-5.117-7.115-1.779-7.005,2.682-1.943-11.439L290,225.987l-1.888-8.921-6.048-.109-.027-7.635-7.744-1.012-1.779-2.928-5.8,3.776-3.229-1.888,1.861-2.682-1.231-3.311-6.321,2.353-4.6-7.115-15.078,1.04Z" transform="translate(56.382 43.582)"/>
    <path id="path4155" class="cls-11" d="M198.214,130.554,166.422,142.4l-52.5-49.387-5.6-6.4,2.846-2.9,2.654,3.612,8.565-3.64,12.7,13.518,1.587-5.774,3.612-3.366.766-5.911,9-.109-8.839-3.229-5.555-5.528,1.806-1.861L120.64,60.882l32.537-3.557,24.054,1.806L176.273,48.6l.082-4.6,1.779-2.49,70.52,2.654L260.2,47.719v10.4l8.921,1.779-.137,5.309,8.757.082,1.067,6.267,11.74-.055,4.163,22.579,28.866,26.732L325,131.21l-6.13,17.24,1.423,13.956-1.04,14.175,5.829,14.586-1.279.17-2.922.16-3.647-.919-7.121,1.664-20.821-.542-4.625,7.2L272.653,184.25l-8.05-1.645L245.2,164.919l-1.006-29.141,2.786-8.572Z" transform="translate(64.178 55.087)"/>
    <path id="path4136" class="cls-12" d="M471.938,527.137,461.7,519.666l.438-2.052,8.264,4.57-.6,1.587Z" transform="translate(22.35 -1.267)"/>
    <g id="text4157" transform="translate(474.13 360.677)">
      <path id="path4388" d="M450.447,353.321V341.27h4.711a6.659,6.659,0,0,1,2.281.331,3.525,3.525,0,0,1,1.521,1.058,6.96,6.96,0,0,1,1.471,4.629,6.88,6.88,0,0,1-1.471,4.629,4.688,4.688,0,0,1-3.8,1.405Zm2.48-2.066h2.232q2.794,0,2.794-3.951,0-3.967-2.794-3.967h-2.232Z" transform="translate(-450.447 -341.072)"/>
      <path id="path4390" d="M470.573,350.891H466.06l-.81,2.43h-2.529L467,341.27h2.744l4.166,12.051h-2.546Zm-.678-2.066-1.57-4.711-1.57,4.711Z" transform="translate(-451.9 -341.072)"/>
      <path id="path4392" d="M483.934,351.254q0-.5.016-.777t.017-.5a1.415,1.415,0,0,0-.364-1.091,1.66,1.66,0,0,0-1.174-.347h-2.843v4.777h-2.48V341.27h6.464a3.672,3.672,0,0,1,1.587.314,2.316,2.316,0,0,1,1.008.827,3.59,3.59,0,0,1,.5,1.041,3.833,3.833,0,0,1,.149,1.075,2.945,2.945,0,0,1-2.033,2.976q.446.182.661.3a1.324,1.324,0,0,1,.43.347,1.3,1.3,0,0,1,.3.446,3.2,3.2,0,0,1,.149.727,8.549,8.549,0,0,1,.1,1.041q.016.512.033,1.521a1.047,1.047,0,0,0,.529.992v.446h-2.661a3.079,3.079,0,0,1-.314-.827,8.316,8.316,0,0,1-.066-1.24Zm.4-6.381a1.409,1.409,0,0,0-.43-1.223,2.25,2.25,0,0,0-1.322-.314h-2.992v3.141h2.992a2.215,2.215,0,0,0,1.306-.314,1.5,1.5,0,0,0,.446-1.289Z" transform="translate(-453.603 -341.072)"/>
      <path id="path4394" d="M497.98,353.321l-4.844-8.331v8.331h-2.48V341.27H493.2l4.777,8.2v-8.2h2.48v12.051Z" transform="translate(-455.206 -341.072)"/>
      <path id="path4396" d="M509.96,348.857v4.463h-2.48v-4.463l-4-7.588h2.761l2.463,5.323,2.3-5.323h2.777l-3.818,7.588Z" transform="translate(-456.724 -341.072)"/>
      <path id="path4398" d="M522.036,343.336v9.984h-2.48v-9.984H515.9V341.27h9.654v2.066Z" transform="translate(-458.195 -341.072)"/>
      <path id="path4400" d="M537.681,344.913h-2.314q-.132-1.885-2.529-1.885a2.514,2.514,0,0,0-1.521.413,1.249,1.249,0,0,0-.562,1.074,1.125,1.125,0,0,0,.479.992,5.657,5.657,0,0,0,1.8.579l1.885.364a4.511,4.511,0,0,1,2.43,1.124,3.012,3.012,0,0,1,.76,2.2,3.476,3.476,0,0,1-1.306,2.876,5.756,5.756,0,0,1-3.637,1.025,5.655,5.655,0,0,1-3.6-1.025,3.9,3.9,0,0,1-1.389-2.959h2.413a1.907,1.907,0,0,0,.76,1.488,3.234,3.234,0,0,0,1.951.512,3.158,3.158,0,0,0,1.769-.43,1.441,1.441,0,0,0,.149-2.314,4.249,4.249,0,0,0-1.752-.628l-1.686-.331a5.168,5.168,0,0,1-2.612-1.091,2.837,2.837,0,0,1-.777-2.149,3.3,3.3,0,0,1,1.19-2.728,5.23,5.23,0,0,1,3.372-.975,8.535,8.535,0,0,1,1.207.083,5.393,5.393,0,0,1,1.256.347,3.737,3.737,0,0,1,1.141.661,2.936,2.936,0,0,1,.794,1.124,3.883,3.883,0,0,1,.331,1.653Z" transform="translate(-459.647 -341.045)"/>
      <path id="path4402" d="M544.186,341.27v12.051h-2.48V341.27Z" transform="translate(-461.249 -341.072)"/>
      <path id="path4404" d="M554.069,350.891h-4.513l-.81,2.43h-2.529L550.5,341.27h2.744l4.166,12.051h-2.546l-.793-2.43Zm-.678-2.066-1.57-4.711-1.57,4.711Z" transform="translate(-461.783 -341.072)"/>
    </g>
    <g id="text4157-6" transform="translate(436.573 303.781)">
      <path id="path4375" d="M407.849,288.787V276.736h4.711a6.659,6.659,0,0,1,2.281.331,3.525,3.525,0,0,1,1.521,1.058,6.959,6.959,0,0,1,1.471,4.629,6.88,6.88,0,0,1-1.471,4.629,4.688,4.688,0,0,1-3.8,1.405Zm2.48-2.066h2.232q2.794,0,2.794-3.951,0-3.967-2.794-3.967h-2.232Z" transform="translate(-407.849 -276.537)"/>
      <path id="path4377" d="M428.758,288.787l-4.844-8.331v8.331h-2.48V276.736h2.546l4.777,8.2v-8.2h2.48v12.051Z" transform="translate(-409.457 -276.537)"/>
      <path id="path4379" d="M438.05,276.736v12.051h-2.48V276.736Z" transform="translate(-411.13 -276.537)"/>
      <path id="path4381" d="M443.873,284.489v4.3h-2.48V276.736h5.323a3.977,3.977,0,0,1,2.876.959,3.652,3.652,0,0,1,1.008,2.777,4.183,4.183,0,0,1-.992,2.926,3.4,3.4,0,0,1-2.645,1.091h-3.091Zm0-2.066h2.314q1.934,0,1.934-1.8a1.79,1.79,0,0,0-.479-1.372,2.034,2.034,0,0,0-1.455-.446h-2.314Z" transform="translate(-411.819 -276.537)"/>
      <path id="path4383" d="M460.928,286.72q0-.5.017-.777t.017-.5a1.415,1.415,0,0,0-.364-1.091,1.66,1.66,0,0,0-1.174-.347h-2.843v4.777H454.1V276.736h6.464a3.671,3.671,0,0,1,1.587.314,2.316,2.316,0,0,1,1.008.827,3.593,3.593,0,0,1,.5,1.041,3.833,3.833,0,0,1,.149,1.074,2.945,2.945,0,0,1-2.033,2.976q.446.182.661.3a1.323,1.323,0,0,1,.43.347,1.3,1.3,0,0,1,.3.446,3.2,3.2,0,0,1,.149.727,8.533,8.533,0,0,1,.1,1.041q.017.512.033,1.521a1.047,1.047,0,0,0,.529.992v.446h-2.661a3.078,3.078,0,0,1-.314-.827,8.32,8.32,0,0,1-.066-1.24Zm.4-6.381a1.41,1.41,0,0,0-.43-1.223,2.25,2.25,0,0,0-1.322-.314h-2.992v3.141h2.992a2.215,2.215,0,0,0,1.306-.314,1.5,1.5,0,0,0,.446-1.289Z" transform="translate(-413.323 -276.537)"/>
      <path id="path4385" d="M468.488,287.371a7.3,7.3,0,0,1,0-9.092,5.888,5.888,0,0,1,8.414,0,6.589,6.589,0,0,1,1.6,4.629,6.471,6.471,0,0,1-1.587,4.463,5.907,5.907,0,0,1-8.431,0Zm4.215-8.745a2.916,2.916,0,0,0-2.413,1.157,4.74,4.74,0,0,0-.909,3.042,4.81,4.81,0,0,0,.909,3.058,3.106,3.106,0,0,0,4.81,0,4.6,4.6,0,0,0,.926-2.992,4.895,4.895,0,0,0-.909-3.108,2.888,2.888,0,0,0-2.413-1.157Z" transform="translate(-414.838 -276.511)"/>
    </g>
    <g id="text4157-7" transform="translate(473.463 207.093)">
      <path id="path4364" d="M449.69,179.117V167.066H454.4a6.659,6.659,0,0,1,2.281.331,3.524,3.524,0,0,1,1.521,1.058,6.959,6.959,0,0,1,1.471,4.629,6.88,6.88,0,0,1-1.471,4.629,4.688,4.688,0,0,1-3.8,1.405Zm2.48-2.066H454.4q2.794,0,2.794-3.951,0-3.967-2.794-3.967H452.17Z" transform="translate(-449.69 -166.868)"/>
      <path id="path4366" d="M465.756,173.926v3.124h6.53v2.066h-9.009V167.066h8.712v2.066h-6.232v2.728h5.769v2.066Z" transform="translate(-451.298 -166.868)"/>
      <path id="path4368" d="M484.483,170.709h-2.314q-.132-1.884-2.529-1.884a2.515,2.515,0,0,0-1.521.413,1.249,1.249,0,0,0-.562,1.074,1.125,1.125,0,0,0,.479.992,5.66,5.66,0,0,0,1.8.579l1.884.364a4.512,4.512,0,0,1,2.43,1.124,3.012,3.012,0,0,1,.76,2.2,3.476,3.476,0,0,1-1.306,2.876,5.756,5.756,0,0,1-3.637,1.025,5.655,5.655,0,0,1-3.6-1.025,3.9,3.9,0,0,1-1.389-2.959h2.413a1.907,1.907,0,0,0,.76,1.488,3.234,3.234,0,0,0,1.951.512,3.157,3.157,0,0,0,1.769-.43,1.441,1.441,0,0,0,.149-2.314,4.249,4.249,0,0,0-1.752-.628l-1.686-.331a5.168,5.168,0,0,1-2.612-1.091,2.837,2.837,0,0,1-.777-2.149,3.3,3.3,0,0,1,1.19-2.728,5.23,5.23,0,0,1,3.372-.975,8.531,8.531,0,0,1,1.207.083,5.4,5.4,0,0,1,1.256.347,3.737,3.737,0,0,1,1.141.661,2.935,2.935,0,0,1,.793,1.124,3.883,3.883,0,0,1,.331,1.653Z" transform="translate(-452.683 -166.841)"/>
      <path id="path4370" d="M495.832,179.117l-4.843-8.331v8.331h-2.48V167.066h2.546l4.777,8.2v-8.2h2.48v12.051h-2.48Z" transform="translate(-454.285 -166.868)"/>
      <path id="path4372" d="M509.184,176.687h-4.513l-.81,2.43h-2.529l4.281-12.051h2.744l4.166,12.051h-2.546Zm-.678-2.066-1.57-4.711-1.57,4.711Z" transform="translate(-455.803 -166.868)"/>
    </g>
    <g id="text4157-4" transform="translate(252.919 150.271)">
      <path id="path4330" d="M201.124,113.251a7.3,7.3,0,0,1,0-9.092,5.888,5.888,0,0,1,8.414,0,6.589,6.589,0,0,1,1.6,4.629,6.471,6.471,0,0,1-1.587,4.463,5.907,5.907,0,0,1-8.431,0Zm4.215-8.745a2.916,2.916,0,0,0-2.413,1.157,4.74,4.74,0,0,0-.909,3.042,4.81,4.81,0,0,0,.909,3.058,3.106,3.106,0,0,0,4.81,0,4.6,4.6,0,0,0,.926-2.992,4.9,4.9,0,0,0-.909-3.108,2.888,2.888,0,0,0-2.413-1.157Z" transform="translate(-199.537 -102.39)"/>
      <path id="path4332" d="M224.59,111.195a3.452,3.452,0,0,1-.2,1.157,3.71,3.71,0,0,1-.645,1.108,2.93,2.93,0,0,1-1.306.876,5.9,5.9,0,0,1-2.083.331h-5.422V102.615h5.372a5.108,5.108,0,0,1,1.934.331,2.764,2.764,0,0,1,1.223.86,3.6,3.6,0,0,1,.6,1.008,2.821,2.821,0,0,1,.182.975,2.333,2.333,0,0,1-.38,1.339,4.414,4.414,0,0,1-1.273,1.141,3.4,3.4,0,0,1,2,2.926Zm-7.174-6.513v2.728h2.695q1.752,0,1.752-1.356,0-1.372-1.752-1.372Zm0,4.794V112.6h2.959q1.835,0,1.835-1.554,0-1.57-1.835-1.57Z" transform="translate(-201.36 -102.417)"/>
      <path id="path4334" d="M228.956,113.251a7.3,7.3,0,0,1,0-9.092,5.888,5.888,0,0,1,8.414,0,6.589,6.589,0,0,1,1.6,4.629,6.471,6.471,0,0,1-1.587,4.463,5.907,5.907,0,0,1-8.431,0Zm4.215-8.745a2.916,2.916,0,0,0-2.413,1.157,4.74,4.74,0,0,0-.909,3.042,4.81,4.81,0,0,0,.909,3.058,3.106,3.106,0,0,0,4.81,0,4.6,4.6,0,0,0,.926-2.992,4.9,4.9,0,0,0-.909-3.108,2.888,2.888,0,0,0-2.413-1.157Z" transform="translate(-202.832 -102.39)"/>
      <path id="path4336" d="M245.247,102.615V112.6h5.769v2.066h-8.249V102.615Z" transform="translate(-204.654 -102.417)"/>
      <path id="path4338" d="M255.214,113.251a7.3,7.3,0,0,1,0-9.092,5.888,5.888,0,0,1,8.414,0,6.589,6.589,0,0,1,1.6,4.629,6.471,6.471,0,0,1-1.587,4.463,5.907,5.907,0,0,1-8.431,0Zm4.215-8.745a2.916,2.916,0,0,0-2.413,1.157,4.74,4.74,0,0,0-.909,3.042,4.81,4.81,0,0,0,.909,3.058,3.106,3.106,0,0,0,4.81,0,4.6,4.6,0,0,0,.926-2.992,4.9,4.9,0,0,0-.909-3.108,2.888,2.888,0,0,0-2.413-1.157Z" transform="translate(-205.94 -102.39)"/>
      <path id="path4340" d="M276.348,114.666l-4.843-8.331v8.331h-2.48V102.615h2.546l4.777,8.2v-8.2h2.48v12.051h-2.48Z" transform="translate(-207.762 -102.417)"/>
    </g>
    <g id="text4157-69" transform="translate(97.144 136.195)">
      <path id="path4319" d="M25.328,94.4v4.3h-2.48V86.649h5.323a3.977,3.977,0,0,1,2.876.959,3.652,3.652,0,0,1,1.008,2.777,4.183,4.183,0,0,1-.992,2.926A3.4,3.4,0,0,1,28.42,94.4H25.328Zm0-2.066h2.314q1.934,0,1.934-1.8a1.79,1.79,0,0,0-.479-1.372,2.034,2.034,0,0,0-1.455-.446H25.328Z" transform="translate(-22.849 -86.451)"/>
      <path id="path4321" d="M36.393,97.285a7.3,7.3,0,0,1,0-9.092,5.888,5.888,0,0,1,8.414,0,6.589,6.589,0,0,1,1.6,4.629,6.471,6.471,0,0,1-1.587,4.463,5.356,5.356,0,0,1-4.215,1.769A5.387,5.387,0,0,1,36.393,97.285Zm4.215-8.745A2.916,2.916,0,0,0,38.2,89.7a4.74,4.74,0,0,0-.909,3.042A4.81,4.81,0,0,0,38.2,95.8a3.106,3.106,0,0,0,4.81,0,4.6,4.6,0,0,0,.926-2.992,4.9,4.9,0,0,0-.909-3.108A2.888,2.888,0,0,0,40.609,88.54Z" transform="translate(-24.264 -86.424)"/>
      <path id="path4323" d="M50.2,98.7V86.649h4.711a6.659,6.659,0,0,1,2.281.331,3.525,3.525,0,0,1,1.521,1.058,6.96,6.96,0,0,1,1.471,4.629A6.88,6.88,0,0,1,58.718,97.3a4.688,4.688,0,0,1-3.8,1.405Zm2.48-2.066h2.232q2.794,0,2.794-3.951,0-3.967-2.794-3.967H52.684Z" transform="translate(-26.087 -86.451)"/>
      <path id="path4325" d="M66.271,86.649V98.7h-2.48V86.649Z" transform="translate(-27.695 -86.451)"/>
      <path id="path4327" d="M72.094,86.649v9.985h5.769V98.7H69.614V86.649Z" transform="translate(-28.384 -86.451)"/>
    </g>
    <g id="text4157-1" transform="translate(138.643 239.419)">
      <path id="path4298" d="M79.424,207.375H77.11q-.132-1.884-2.529-1.884a2.515,2.515,0,0,0-1.521.413,1.249,1.249,0,0,0-.562,1.074,1.125,1.125,0,0,0,.479.992,5.66,5.66,0,0,0,1.8.579l1.884.364a4.511,4.511,0,0,1,2.43,1.124,3.012,3.012,0,0,1,.76,2.2,3.476,3.476,0,0,1-1.306,2.876,5.756,5.756,0,0,1-3.637,1.025,5.655,5.655,0,0,1-3.6-1.025,3.9,3.9,0,0,1-1.389-2.959h2.413a1.907,1.907,0,0,0,.76,1.488,3.234,3.234,0,0,0,1.951.512,3.157,3.157,0,0,0,1.769-.43,1.441,1.441,0,0,0,.149-2.314,4.25,4.25,0,0,0-1.752-.628l-1.686-.331a5.168,5.168,0,0,1-2.612-1.091,2.837,2.837,0,0,1-.777-2.149,3.3,3.3,0,0,1,1.19-2.728,5.23,5.23,0,0,1,3.372-.975,8.534,8.534,0,0,1,1.207.083,5.4,5.4,0,0,1,1.256.347,3.738,3.738,0,0,1,1.141.661,2.935,2.935,0,0,1,.793,1.124,3.882,3.882,0,0,1,.331,1.653Z" transform="translate(-69.919 -203.507)"/>
      <path id="path4300" d="M88.49,215.783h-2.1l-4.067-12.051h2.5l2.678,9.075,2.628-9.075h2.5Z" transform="translate(-71.387 -203.534)"/>
      <path id="path4302" d="M101.032,211.32v4.463h-2.48V211.32l-4-7.588h2.761l2.463,5.323,2.3-5.323h2.777Z" transform="translate(-72.834 -203.534)"/>
      <path id="path4304" d="M114.452,213.353h-4.513l-.81,2.43H106.6l4.281-12.051h2.744l4.166,12.051h-2.546Zm-.678-2.066-1.57-4.711-1.57,4.711Z" transform="translate(-74.26 -203.534)"/>
      <path id="path4306" d="M126.181,205.8v9.985H123.7V205.8h-3.653v-2.066H129.7V205.8h-3.521Z" transform="translate(-75.852 -203.534)"/>
      <path id="path4308" d="M133.908,214.368a7.3,7.3,0,0,1,0-9.092,5.888,5.888,0,0,1,8.414,0,6.589,6.589,0,0,1,1.6,4.629,6.471,6.471,0,0,1-1.587,4.463,5.907,5.907,0,0,1-8.431,0Zm4.215-8.745a2.916,2.916,0,0,0-2.413,1.157,4.74,4.74,0,0,0-.909,3.042,4.81,4.81,0,0,0,.909,3.058,3.106,3.106,0,0,0,4.81,0,4.6,4.6,0,0,0,.926-2.992,4.9,4.9,0,0,0-.909-3.108A2.888,2.888,0,0,0,138.123,205.623Z" transform="translate(-77.305 -203.507)"/>
      <path id="path4310" d="M156.475,207.375H154.16q-.132-1.884-2.529-1.884a2.515,2.515,0,0,0-1.521.413,1.249,1.249,0,0,0-.562,1.074,1.125,1.125,0,0,0,.479.992,5.66,5.66,0,0,0,1.8.579l1.884.364a4.511,4.511,0,0,1,2.43,1.124,3.012,3.012,0,0,1,.76,2.2,3.476,3.476,0,0,1-1.306,2.876,5.756,5.756,0,0,1-3.637,1.025,5.655,5.655,0,0,1-3.6-1.025,3.9,3.9,0,0,1-1.389-2.959h2.413a1.907,1.907,0,0,0,.76,1.488,3.234,3.234,0,0,0,1.951.512,3.157,3.157,0,0,0,1.769-.43,1.441,1.441,0,0,0,.149-2.314,4.25,4.25,0,0,0-1.752-.628l-1.686-.331a5.168,5.168,0,0,1-2.612-1.091,2.837,2.837,0,0,1-.777-2.149,3.3,3.3,0,0,1,1.19-2.728,5.23,5.23,0,0,1,3.372-.975,8.534,8.534,0,0,1,1.207.083,5.4,5.4,0,0,1,1.256.347,3.737,3.737,0,0,1,1.141.661,2.936,2.936,0,0,1,.793,1.124,3.882,3.882,0,0,1,.331,1.653Z" transform="translate(-79.039 -203.507)"/>
      <path id="path4312" d="M167.757,210.311H162.98v5.472H160.5V203.732h2.48v4.513h4.761v-4.513h2.5v12.051h-2.48Z" transform="translate(-80.64 -203.534)"/>
      <path id="path4314" d="M179.694,211.32v4.463h-2.48V211.32l-4-7.588h2.761l2.463,5.323,2.3-5.323h2.777Z" transform="translate(-82.145 -203.534)"/>
      <path id="path4316" d="M193.9,215.783l-4.843-8.331v8.331h-2.48V203.732h2.546l4.777,8.2v-8.2h2.48v12.051Z" transform="translate(-83.727 -203.534)"/>
    </g>
    <g id="text4157-0" transform="translate(94.421 331.146)">
      <path id="path4276" d="M29.265,311.418H26.951q-.132-1.885-2.529-1.885a2.515,2.515,0,0,0-1.521.413,1.249,1.249,0,0,0-.562,1.074,1.125,1.125,0,0,0,.479.992,5.658,5.658,0,0,0,1.8.579l1.884.364a4.511,4.511,0,0,1,2.43,1.124,3.012,3.012,0,0,1,.76,2.2,3.476,3.476,0,0,1-1.306,2.876,5.756,5.756,0,0,1-3.637,1.025,5.655,5.655,0,0,1-3.6-1.025A3.9,3.9,0,0,1,19.76,316.2h2.413a1.907,1.907,0,0,0,.76,1.488,3.234,3.234,0,0,0,1.951.512,3.157,3.157,0,0,0,1.769-.43,1.441,1.441,0,0,0,.149-2.314,4.249,4.249,0,0,0-1.752-.628l-1.686-.331a5.167,5.167,0,0,1-2.612-1.091,2.837,2.837,0,0,1-.777-2.149,3.3,3.3,0,0,1,1.19-2.728,5.23,5.23,0,0,1,3.372-.975,8.536,8.536,0,0,1,1.207.083,5.4,5.4,0,0,1,1.256.347,3.737,3.737,0,0,1,1.141.661,2.936,2.936,0,0,1,.793,1.124,3.882,3.882,0,0,1,.331,1.653Z" transform="translate(-19.76 -307.55)"/>
      <path id="path4278" d="M40.548,314.354H35.77v5.472h-2.48V307.775h2.48v4.513h4.761v-4.513h2.5v12.051h-2.48Z" transform="translate(-21.361 -307.576)"/>
      <path id="path4280" d="M49.8,314.635v3.124h6.53v2.066H47.316V307.775h8.712v2.066H49.8v2.728h5.769v2.066Z" transform="translate(-23.022 -307.576)"/>
      <path id="path4282" d="M64.809,319.826h-2.1l-4.067-12.051h2.5l2.678,9.075,2.628-9.075h2.5Z" transform="translate(-24.362 -307.576)"/>
      <path id="path4284" d="M79.615,311.831a2.423,2.423,0,0,0-2.579-2.165,2.691,2.691,0,0,0-2.3,1.124,6.336,6.336,0,0,0-.033,6.2,2.92,2.92,0,0,0,4.1.479,2.662,2.662,0,0,0,.81-1.785h2.413a4.522,4.522,0,0,1-1.5,3.29,5.345,5.345,0,0,1-3.637,1.207,5.017,5.017,0,0,1-3.984-1.686,7.954,7.954,0,0,1,.017-9.241,5.082,5.082,0,0,1,4.033-1.7,5.232,5.232,0,0,1,3.488,1.141,4.361,4.361,0,0,1,1.537,3.141Z" transform="translate(-25.876 -307.55)"/>
      <path id="path4286" d="M92.952,314.354H88.175v5.472H85.7V307.775h2.48v4.513h4.761v-4.513h2.5v12.051h-2.48v-5.472Z" transform="translate(-27.564 -307.576)"/>
      <path id="path4288" d="M102.2,314.635v3.124h6.53v2.066H99.721V307.775h8.712v2.066H102.2v2.728h5.769v2.066Z" transform="translate(-29.224 -307.576)"/>
      <path id="path4290" d="M119.5,319.826l-4.843-8.331v8.331h-2.48V307.775h2.546l4.777,8.2v-8.2h2.48v12.051H119.5Z" transform="translate(-30.698 -307.576)"/>
      <path id="path4293" d="M128.788,315.792v4.033h-2.48V307.775h2.48v5.29l4.711-5.29h2.926l-4.81,5.191,5.323,6.86h-2.959l-3.951-5.323-1.24,1.289Z" transform="translate(-32.371 -307.576)"/>
      <path id="path4295" d="M140.8,318.41a7.3,7.3,0,0,1,0-9.092,5.888,5.888,0,0,1,8.414,0,6.589,6.589,0,0,1,1.6,4.629,6.471,6.471,0,0,1-1.587,4.463,5.907,5.907,0,0,1-8.431,0Zm4.215-8.745a2.916,2.916,0,0,0-2.413,1.157,4.74,4.74,0,0,0-.909,3.042,4.81,4.81,0,0,0,.909,3.058,3.106,3.106,0,0,0,4.81,0,4.6,4.6,0,0,0,.926-2.992,4.895,4.895,0,0,0-.909-3.108,2.888,2.888,0,0,0-2.413-1.157Z" transform="translate(-33.9 -307.55)"/>
    </g>
    <g id="text4157-2" transform="translate(102.74 372.96)">
      <path id="path4253" d="M38.7,358.845H36.387q-.132-1.885-2.529-1.884a2.515,2.515,0,0,0-1.521.413,1.249,1.249,0,0,0-.562,1.074,1.125,1.125,0,0,0,.479.992,5.659,5.659,0,0,0,1.8.579l1.884.364a4.511,4.511,0,0,1,2.43,1.124,3.012,3.012,0,0,1,.76,2.2,3.476,3.476,0,0,1-1.306,2.876,5.757,5.757,0,0,1-3.637,1.025,5.655,5.655,0,0,1-3.6-1.025,3.9,3.9,0,0,1-1.389-2.959h2.413a1.907,1.907,0,0,0,.76,1.488,3.234,3.234,0,0,0,1.951.512,3.157,3.157,0,0,0,1.769-.43,1.441,1.441,0,0,0,.149-2.314,4.249,4.249,0,0,0-1.752-.628L32.8,361.92a5.168,5.168,0,0,1-2.612-1.091,2.837,2.837,0,0,1-.777-2.149,3.3,3.3,0,0,1,1.19-2.728,5.229,5.229,0,0,1,3.372-.975,8.536,8.536,0,0,1,1.207.083,5.4,5.4,0,0,1,1.256.347,3.737,3.737,0,0,1,1.141.661,2.936,2.936,0,0,1,.793,1.124,3.882,3.882,0,0,1,.331,1.653Z" transform="translate(-29.196 -354.977)"/>
      <path id="path4255" d="M43.563,365.838a7.3,7.3,0,0,1,0-9.092,5.888,5.888,0,0,1,8.414,0,6.589,6.589,0,0,1,1.6,4.629,6.471,6.471,0,0,1-1.587,4.463,5.907,5.907,0,0,1-8.431,0Zm4.215-8.745a2.916,2.916,0,0,0-2.413,1.157,4.74,4.74,0,0,0-.909,3.042,4.81,4.81,0,0,0,.909,3.058,3.106,3.106,0,0,0,4.81,0,4.6,4.6,0,0,0,.926-2.992,4.9,4.9,0,0,0-.909-3.108,2.888,2.888,0,0,0-2.413-1.157Z" transform="translate(-30.708 -354.977)"/>
      <path id="path4257" d="M59.854,355.2v9.985h5.769v2.066H57.375V355.2Z" transform="translate(-32.531 -355.004)"/>
      <path id="path4259" d="M69.821,365.838a7.3,7.3,0,0,1,0-9.092,5.888,5.888,0,0,1,8.414,0,6.589,6.589,0,0,1,1.6,4.629,6.471,6.471,0,0,1-1.587,4.463,5.907,5.907,0,0,1-8.431,0Zm4.215-8.745a2.916,2.916,0,0,0-2.413,1.157,4.74,4.74,0,0,0-.909,3.042,4.81,4.81,0,0,0,.909,3.058,3.106,3.106,0,0,0,4.81,0,4.6,4.6,0,0,0,.926-2.992,4.895,4.895,0,0,0-.909-3.108,2.888,2.888,0,0,0-2.413-1.157Z" transform="translate(-33.816 -354.977)"/>
      <path id="path4261" d="M86.112,357.864v9.389h-2.48V355.2h3.7l2.182,9.588,2.116-9.588h3.736v12.051h-2.48v-9.389l-2.132,9.389h-2.48Z" transform="translate(-35.639 -355.004)"/>
      <path id="path4263" d="M101.76,355.2v2.149l-.694,2.132h-.926l-.661-2.132V355.2Z" transform="translate(-37.515 -355.004)"/>
      <path id="path4265" d="M109.784,362.79v4.463H107.3V362.79l-4-7.588h2.761l2.463,5.323,2.3-5.323H113.6Z" transform="translate(-37.967 -355.004)"/>
      <path id="path4267" d="M123.2,364.823h-4.513l-.81,2.43h-2.529l4.281-12.051h2.744l4.166,12.051H124Zm-.678-2.066-1.57-4.711-1.57,4.711Z" transform="translate(-39.394 -355.004)"/>
      <path id="path4269" d="M137.061,367.253l-4.843-8.331v8.331h-2.48V355.2h2.546l4.777,8.2v-8.2h2.48v12.051Z" transform="translate(-41.096 -355.004)"/>
      <path id="path4271" d="M152.629,358.845h-2.314q-.132-1.885-2.529-1.884a2.515,2.515,0,0,0-1.521.413,1.249,1.249,0,0,0-.562,1.074,1.125,1.125,0,0,0,.479.992,5.659,5.659,0,0,0,1.8.579l1.884.364a4.511,4.511,0,0,1,2.43,1.124,3.012,3.012,0,0,1,.76,2.2,3.476,3.476,0,0,1-1.306,2.876,5.757,5.757,0,0,1-3.637,1.025,5.655,5.655,0,0,1-3.6-1.025,3.9,3.9,0,0,1-1.389-2.959h2.413a1.907,1.907,0,0,0,.76,1.488,3.234,3.234,0,0,0,1.951.512,3.157,3.157,0,0,0,1.769-.43,1.441,1.441,0,0,0,.149-2.314,4.249,4.249,0,0,0-1.752-.628l-1.686-.331a5.168,5.168,0,0,1-2.612-1.091,2.837,2.837,0,0,1-.777-2.149,3.3,3.3,0,0,1,1.19-2.728,5.229,5.229,0,0,1,3.372-.975,8.536,8.536,0,0,1,1.207.083,5.4,5.4,0,0,1,1.256.347,3.737,3.737,0,0,1,1.141.661,2.936,2.936,0,0,1,.793,1.124,3.882,3.882,0,0,1,.331,1.653Z" transform="translate(-42.681 -354.977)"/>
      <path id="path4273" d="M159.134,363.219v4.034h-2.48V355.2h2.48v5.29l4.711-5.29h2.926l-4.81,5.191,5.323,6.86h-2.959l-3.951-5.323Z" transform="translate(-44.282 -355.004)"/>
    </g>
    <g id="text4157-73" transform="translate(147.623 423.531)">
      <path id="path4236" d="M82.584,420.315v4.3H80.1V412.562h5.323a3.977,3.977,0,0,1,2.876.959,3.652,3.652,0,0,1,1.008,2.777,4.183,4.183,0,0,1-.992,2.926,3.4,3.4,0,0,1-2.645,1.091H82.584Zm0-2.066H84.9q1.934,0,1.934-1.8a1.79,1.79,0,0,0-.479-1.372,2.035,2.035,0,0,0-1.455-.446H82.584Z" transform="translate(-80.105 -412.364)"/>
      <path id="path4238" d="M95.292,419.422v3.124h6.53v2.066H92.812V412.562h8.712v2.066H95.292v2.728h5.769v2.066Z" transform="translate(-81.609 -412.364)"/>
      <path id="path4240" d="M112.7,416.619a2.423,2.423,0,0,0-2.579-2.166,2.691,2.691,0,0,0-2.3,1.124,6.336,6.336,0,0,0-.033,6.2,2.92,2.92,0,0,0,4.1.479,2.662,2.662,0,0,0,.81-1.785h2.413a4.522,4.522,0,0,1-1.5,3.29,5.346,5.346,0,0,1-3.637,1.207,5.017,5.017,0,0,1-3.984-1.686A7.954,7.954,0,0,1,106,414.04a5.082,5.082,0,0,1,4.033-1.7,5.232,5.232,0,0,1,3.488,1.141,4.361,4.361,0,0,1,1.537,3.141Z" transform="translate(-82.994 -412.337)"/>
      <path id="path4242" d="M126.033,419.141h-4.777v5.472h-2.48V412.562h2.48v4.513h4.761v-4.513h2.5v12.051h-2.48Z" transform="translate(-84.682 -412.364)"/>
      <path id="path4244" d="M135.282,419.422v3.124h6.53v2.066H132.8V412.562h8.712v2.066h-6.232v2.728h5.769v2.066Z" transform="translate(-86.342 -412.364)"/>
      <path id="path4246" d="M152.081,422.547q0-.5.017-.777t.016-.5a1.415,1.415,0,0,0-.364-1.091,1.66,1.66,0,0,0-1.174-.347h-2.843v4.777h-2.48V412.562h6.464a3.672,3.672,0,0,1,1.587.314,2.316,2.316,0,0,1,1.008.827,3.593,3.593,0,0,1,.5,1.041,3.835,3.835,0,0,1,.149,1.074,2.945,2.945,0,0,1-2.033,2.976q.446.182.661.3a1.323,1.323,0,0,1,.43.347,1.3,1.3,0,0,1,.3.446,3.2,3.2,0,0,1,.149.727,8.531,8.531,0,0,1,.1,1.041q.017.512.033,1.521a1.047,1.047,0,0,0,.529.992v.446h-2.661a3.078,3.078,0,0,1-.314-.827,8.325,8.325,0,0,1-.066-1.24Zm.4-6.381a1.41,1.41,0,0,0-.43-1.223,2.25,2.25,0,0,0-1.322-.314h-2.992v3.141h2.992a2.215,2.215,0,0,0,1.306-.314,1.5,1.5,0,0,0,.446-1.289Z" transform="translate(-87.816 -412.364)"/>
      <path id="path4248" d="M167.558,416.205h-2.314q-.132-1.884-2.529-1.884a2.515,2.515,0,0,0-1.521.413,1.249,1.249,0,0,0-.562,1.074,1.125,1.125,0,0,0,.479.992,5.66,5.66,0,0,0,1.8.579l1.885.364a4.511,4.511,0,0,1,2.43,1.124,3.012,3.012,0,0,1,.76,2.2,3.476,3.476,0,0,1-1.306,2.876,5.757,5.757,0,0,1-3.637,1.025,5.655,5.655,0,0,1-3.6-1.025,3.9,3.9,0,0,1-1.389-2.959h2.413a1.907,1.907,0,0,0,.76,1.488,3.234,3.234,0,0,0,1.951.512,3.158,3.158,0,0,0,1.769-.43,1.441,1.441,0,0,0,.149-2.314,4.249,4.249,0,0,0-1.752-.628l-1.686-.331a5.167,5.167,0,0,1-2.612-1.091,2.837,2.837,0,0,1-.777-2.149,3.3,3.3,0,0,1,1.19-2.728,5.23,5.23,0,0,1,3.372-.975,8.532,8.532,0,0,1,1.207.083,5.4,5.4,0,0,1,1.256.347,3.736,3.736,0,0,1,1.141.661,2.935,2.935,0,0,1,.793,1.124,3.882,3.882,0,0,1,.331,1.653Z" transform="translate(-89.331 -412.337)"/>
      <path id="path4250" d="M174.064,420.579v4.034h-2.48V412.562h2.48v5.29l4.711-5.29H181.7l-4.81,5.191,5.323,6.86h-2.959L175.3,419.29l-1.24,1.289Z" transform="translate(-90.933 -412.364)"/>
    </g>
    <g id="text4157-00" transform="translate(330.952 432.304)">
      <path id="path4219" d="M295.3,429.093h-4.777v5.472h-2.48V422.513h2.48v4.513h4.761v-4.513h2.5v12.051H295.3v-5.472Z" transform="translate(-288.047 -422.315)"/>
      <path id="path4221" d="M302.91,433.149a7.3,7.3,0,0,1,0-9.092,5.888,5.888,0,0,1,8.414,0,6.589,6.589,0,0,1,1.6,4.629,6.471,6.471,0,0,1-1.587,4.463,5.907,5.907,0,0,1-8.431,0Zm4.215-8.745a2.916,2.916,0,0,0-2.413,1.157,4.74,4.74,0,0,0-.909,3.042,4.81,4.81,0,0,0,.909,3.058,3.106,3.106,0,0,0,4.81,0,4.6,4.6,0,0,0,.926-2.992,4.895,4.895,0,0,0-.909-3.108,2.888,2.888,0,0,0-2.413-1.157Z" transform="translate(-289.618 -422.288)"/>
      <path id="path4223" d="M319.2,422.513V432.5h5.769v2.066h-8.249V422.513Z" transform="translate(-291.441 -422.315)"/>
      <path id="path4225" d="M329.167,433.149a7.3,7.3,0,0,1,0-9.092,5.888,5.888,0,0,1,8.414,0,6.589,6.589,0,0,1,1.6,4.629,6.471,6.471,0,0,1-1.587,4.463,5.907,5.907,0,0,1-8.431,0Zm4.215-8.745a2.916,2.916,0,0,0-2.413,1.157,4.74,4.74,0,0,0-.909,3.042,4.81,4.81,0,0,0,.909,3.058,3.106,3.106,0,0,0,4.81,0,4.6,4.6,0,0,0,.926-2.992,4.9,4.9,0,0,0-.909-3.108,2.888,2.888,0,0,0-2.413-1.157Z" transform="translate(-292.726 -422.288)"/>
      <path id="path4227" d="M351.734,426.157h-2.314q-.132-1.885-2.529-1.884a2.515,2.515,0,0,0-1.521.413,1.249,1.249,0,0,0-.562,1.074,1.125,1.125,0,0,0,.479.992,5.659,5.659,0,0,0,1.8.579l1.885.364a4.511,4.511,0,0,1,2.43,1.124,3.012,3.012,0,0,1,.76,2.2,3.476,3.476,0,0,1-1.306,2.876,5.757,5.757,0,0,1-3.637,1.025,5.655,5.655,0,0,1-3.6-1.025,3.9,3.9,0,0,1-1.389-2.959h2.414a1.907,1.907,0,0,0,.76,1.488,3.234,3.234,0,0,0,1.951.512,3.158,3.158,0,0,0,1.769-.43,1.441,1.441,0,0,0,.149-2.314,4.248,4.248,0,0,0-1.752-.628l-1.686-.331a5.168,5.168,0,0,1-2.612-1.091,2.837,2.837,0,0,1-.777-2.149,3.3,3.3,0,0,1,1.19-2.728,5.23,5.23,0,0,1,3.372-.975,8.527,8.527,0,0,1,1.207.083,5.392,5.392,0,0,1,1.256.347,3.738,3.738,0,0,1,1.141.661,2.936,2.936,0,0,1,.793,1.124,3.883,3.883,0,0,1,.331,1.653Z" transform="translate(-294.46 -422.288)"/>
      <path id="path4229" d="M358.239,422.513v12.051h-2.48V422.513Z" transform="translate(-296.062 -422.315)"/>
      <path id="path4231" d="M364.062,422.513v12.051h-2.48V422.513Z" transform="translate(-296.751 -422.315)"/>
      <path id="path4233" d="M372.446,434.564h-2.1l-4.067-12.051h2.5l2.678,9.075,2.628-9.075h2.5Z" transform="translate(-297.307 -422.315)"/>
    </g>
    <path id="path4277" class="cls-13" d="M18.436,104.7H77.57l134.211,68.221" transform="translate(74.818 47.607)"/>
    <path id="path4277-5" class="cls-13" d="M16.659,316.322H138.41l110.782-70.6" transform="translate(75.028 30.915)"/>
    <path id="path4277-5-9" class="cls-13" d="M26.221,366.435H155.867l88.49-54.861" transform="translate(73.896 23.121)"/>
    <path id="path4277-5-9-9" class="cls-13" d="M77.924,416.537h94.815L327.33,309.552" transform="translate(67.777 23.36)"/>
  </g>
</svg>
